<?xml version="1.0" encoding="utf-8"?>
<!-- Generator: Adobe Illustrator 26.0.2, SVG Export Plug-In . SVG Version: 6.00 Build 0)  -->
<svg version="1.1" id="Laag_1" xmlns="http://www.w3.org/2000/svg" xmlns:xlink="http://www.w3.org/1999/xlink" 
	 viewBox="auto" width="100%"  style="enable-background: auto;" >
<style type="text/css">
	.st1{fill:#FBE1B6;}	
</style>
<path class="st1" d="M175.9,97.3c-5,0.1-8.9,3.4-13,5.8c-3.9,2.3-8.5,3.1-12.4,5.4c-4.2,2.5-6.3,6.8-8.1,11.2c-2,5-4,10-5.6,15.1
	c-6.6,21-5.9,43.3-4.2,65c1.8,22.2,4.6,44.4,10.6,65.9c1.4,5.2,3.2,10.1,5.7,14.9c2.3,4.4,4.6,9.1,7.4,13.2
	c5.7,8.1,16.1,13.6,26,13.4c10.5-0.3,21.3-1.9,31-5.7c9.7-3.8,17.5-10.5,25.4-17.1c4.2-3.5,8.4-6.9,12.4-10.7
	c3.7-3.5,6.9-7.5,11.2-10.4c4.3-2.9,9.4-4.6,13.8-7.4c4.2-2.6,7.6-6.2,10.7-10c3-3.6,6.3-7.3,7.7-11.9c1.6-5.5,2.8-11.2,3.9-16.8
	c2.4-11.4,4.6-22.8,6.7-34.3c2-11.1,3.7-22.3,3.1-33.6c-0.6-11.2-3.2-22.2-5-33.3c-1.4-8.5-2.2-17.9-7.9-24.9
	c-6.1-7.5-15.8-13-24.6-16.8c-4.8-2-9.9-4.1-15-4.9c-5.2-0.8-9.8,0.4-14.2,3c-9.2,5.5-17.4,12.5-26.8,17.9
	c-3.3,1.9-6.8,3.6-10.3,5.1c-3.3,1.4-7,3.3-10.7,3.3c-1.1,0-2.1,0.1-3.2,0c-1.1-0.1-1.6-1.1-2.5-1.4L180.9,97.3z"/>

</svg>
