<?xml version="1.0" encoding="utf-8"?>
<!-- Generator: Adobe Illustrator 26.0.2, SVG Export Plug-In . SVG Version: 6.00 Build 0)  -->
<svg version="1.1" id="Laag_1" xmlns="http://www.w3.org/2000/svg" xmlns:xlink="http://www.w3.org/1999/xlink" x="0px" y="0px"
	 viewBox="0 0 1000 600" style="enable-background:new 0 0 1000 600;" xml:space="preserve">
<style type="text/css">
	.st0{clip-path:url(#SVGID_00000069385070269012225510000009853759147312696200_);fill:#FBE1B6;}
</style>
<g>
	<defs>
		<rect id="SVGID_1_" x="129.5" y="132.4" width="197.9" height="266.5"/>
	</defs>
	<clipPath id="SVGID_00000178187569531241012620000002534125940788690829_">
		<use xlink:href="#SVGID_1_"  style="overflow:visible;"/>
	</clipPath>
	<path style="clip-path:url(#SVGID_00000178187569531241012620000002534125940788690829_);fill:#FBE1B6;" d="M179.2,164
		c-5.5,0.1-10,3.8-14.5,6.5c-4.4,2.5-9.5,3.4-13.9,6c-4.7,2.8-7.1,7.7-9.1,12.6c-2.2,5.6-4.5,11.1-6.3,16.9
		c-7.4,23.5-6.6,48.5-4.7,72.8c2,24.9,5.1,49.7,11.8,73.8c1.6,5.8,3.5,11.3,6.3,16.6c2.6,4.9,5.1,10.2,8.3,14.7
		c6.4,9.1,18.1,15.3,29.1,15c11.7-0.3,23.8-2.1,34.7-6.4c10.8-4.3,19.6-11.7,28.4-19.2c4.7-3.9,9.4-7.7,13.8-12
		c4.1-4,7.8-8.5,12.6-11.6c4.9-3.2,10.5-5.1,15.4-8.2c4.7-3,8.5-6.9,12-11.2c3.3-4.1,7.1-8.2,8.6-13.3c1.8-6.1,3.1-12.5,4.4-18.7
		c2.6-12.8,5.2-25.6,7.5-38.4c2.3-12.4,4.1-25,3.4-37.7c-0.7-12.6-3.6-24.8-5.6-37.2c-1.5-9.6-2.5-20.1-8.9-27.9
		c-6.9-8.4-17.6-14.6-27.5-18.8c-5.3-2.3-11-4.6-16.8-5.5c-5.8-1-10.9,0.4-15.9,3.4c-10.3,6.1-19.5,14-30,20
		c-3.7,2.2-7.6,4-11.6,5.7c-3.7,1.6-7.8,3.7-11.9,3.7c-1.2,0-2.4,0.1-3.6,0c-1.3-0.1-1.8-1.2-2.8-1.6"/>
</g>
</svg>
