<?xml version="1.0" encoding="utf-8"?>
<!-- Generator: Adobe Illustrator 26.0.2, SVG Export Plug-In . SVG Version: 6.00 Build 0)  -->
<svg version="1.1" id="Laag_1" xmlns="http://www.w3.org/2000/svg" xmlns:xlink="http://www.w3.org/1999/xlink" x="0px" y="0px"
	 viewBox="0 0 1000 600" style="enable-background:new 0 0 1000 600;" xml:space="preserve">
<style type="text/css">
	.st0{clip-path:url(#SVGID_00000118375483087003142060000014637800896620158879_);fill:#8B9165;}
</style>
<g>
	<defs>
		<rect id="SVGID_1_" x="108.8" y="132.4" width="239.2" height="258.3"/>
	</defs>
	<clipPath id="SVGID_00000093864306757621665510000001396526184475758728_">
		<use xlink:href="#SVGID_1_"  style="overflow:visible;"/>
	</clipPath>
	<path style="clip-path:url(#SVGID_00000093864306757621665510000001396526184475758728_);fill:#8B9165;" d="M315.2,217.5
		c5.6,3,9.3,9.2,13.7,13.9c4.6,4.9,10,8.1,14.4,13.2c3.1,3.5,3.3,8.1,3.7,12.5c0.4,5.6,1.3,11.1,0.9,16.7
		c-0.4,5.9-1.8,11.8-3.5,17.4c-3.2,10.7-8.7,20.5-14.5,30c-5.9,9.5-11.9,19-19.2,27.6c-7.4,8.7-15.7,16.5-24.5,23.8
		c-8,6.7-16.9,12.6-26.9,15.9c-10,3.3-20.8,2.4-30.8-0.4c-10.5-3-19.6-9.1-28.6-15.2c-9.1-6.2-17.7-13-25.4-20.9
		c-7.7-8.1-14-17.3-19.9-26.8c-5.7-9.1-10.1-19-16.5-27.7c-6.3-8.4-14.5-15.2-20.4-23.8c-6.6-9.5-10.3-19.9-8.6-31.5
		c1.8-12,4.3-23.9,6.8-35.8c1.9-8.8,3.7-17.8,7.2-26.2c3.4-8.1,8.8-14.9,14.6-21.3c5.4-5.9,10.7-11.9,16.5-17.5
		c3.7-3.5,7.7-7,12.7-8.5c4.7-1.3,9.9-0.6,14.6-0.3c10.6,0.7,20.6,1.7,30.9,4.2c9.1,2.2,19.4,4.8,26.4,11.4
		c3.9,3.7,6.8,8.5,10.3,12.5c4.5,5.1,9.1,10,13.1,15.5c4,5.5,7.8,11.2,12.7,16c5.2,5,10.7,10.9,17.2,14.3c1.3,0.7,2.6,1.5,4,2.1
		c1.5,0.7,2.4,0.2,3.7,0.5"/>
</g>
</svg>
