<?xml version="1.0" encoding="utf-8"?>
<!-- Generator: Adobe Illustrator 26.0.2, SVG Export Plug-In . SVG Version: 6.00 Build 0)  -->
<svg version="1.1" id="Laag_1" xmlns="http://www.w3.org/2000/svg" xmlns:xlink="http://www.w3.org/1999/xlink" x="0px" y="0px"
	 viewBox="0 0 1000 600" style="enable-background:new 0 0 1000 600;" xml:space="preserve">
<style type="text/css">
	.st0{clip-path:url(#SVGID_00000054973572700379485670000012069559823619826563_);fill:#F29753;}
</style>
<g>
	<defs>
		<rect id="SVGID_1_" x="112.5" y="172.3" width="231.9" height="186.7"/>
	</defs>
	<clipPath id="SVGID_00000060719594880631350620000011304411769430822589_">
		<use xlink:href="#SVGID_1_"  style="overflow:visible;"/>
	</clipPath>
	<path style="clip-path:url(#SVGID_00000060719594880631350620000011304411769430822589_);fill:#F29753;" d="M170.3,194.6
		c-5.9,0-11.6,3.2-17.3,5c-5.9,1.9-11.7,2.1-17.6,4.2c-5.7,2-8.8,7.8-11.8,12.5c-3.2,5.1-6,10.4-7.9,16.2
		c-3.9,12.2-3.5,25.3-2.5,37.9c0.9,11.9,2.8,23.7,6.2,35.1c1.7,5.7,3.8,11.3,6.3,16.6c2.5,5.3,4.6,11.3,8.5,15.7
		c1.9,2.2,4,4,5.8,6.3c1.7,2.3,3.7,4.2,6.1,5.7c5,3.2,11.1,5.2,16.7,7.1c2,0.7,4,1.3,6.1,1.6c5.1,0.8,10.8,0.3,15.9,0.2
		c5.5-0.1,11-0.5,16.4-1.1c10.7-1.3,21.4-3.4,31.5-7.1c9.9-3.6,19.1-8.8,28.5-13.6c9.2-4.7,17.6-11.1,27.6-14.2
		c11.2-3.4,21.7-7.1,30.9-14.5c4-3.2,6.2-5.8,8.1-10.6c4-10.1,7-20.5,10.4-30.8c1.9-5.8,4.2-11.5,5.3-17.5c2-11,0.1-21.5-3.4-32
		c-2.2-6.7-4.1-13.4-6.7-19.9c-1.9-5-5.8-8.1-10.5-10.4c-5.4-2.6-10.9-5.1-16.4-7.5c-5.8-2.6-11.7-3.3-17.8-4.5
		c-6-1.2-12-2.7-18.2-2.8c-6.6-0.2-11.9,2-17.8,4.4c-8,3.2-16.1,5.8-23.9,9.5c-4.2,2-9.1,4.4-13.7,5.3c-5.2,1.1-10.4,2.3-15.7,3.4
		c-2.5,0.5-4.9,0.7-7.4,0.7c-3.4,0-6.6-1.4-10-1.5"/>
</g>
</svg>
