<?xml version="1.0" encoding="utf-8"?>
<!-- Generator: Adobe Illustrator 26.0.2, SVG Export Plug-In . SVG Version: 6.00 Build 0)  -->
<svg version="1.1" id="Laag_1" xmlns="http://www.w3.org/2000/svg" xmlns:xlink="http://www.w3.org/1999/xlink" x="0px" y="0px"
	 viewBox="0 0 595.3 841.9" style="enable-background:new 0 0 595.3 841.9;" xml:space="preserve">
<style type="text/css">
	.st0{fill:#8B9165;}
	.st1{fill:#FBE1B6;}
	.st2{fill:#F29753;}
	.st3{fill:#4E562D;}
	.st4{fill:#4E562D;stroke:#4E562D;stroke-width:2;stroke-miterlimit:10;}
	.st5{fill:#4E562D;stroke:#4E562D;stroke-miterlimit:10;}
	.st6{fill:#4E562D;stroke:#4E562D;stroke-width:1.2;stroke-miterlimit:10;}
</style>
<path class="st0" d="M472.3,242.6c4.3,2.3,7.1,7,10.5,10.6c3.5,3.8,7.6,6.2,11,10.1c2.3,2.7,2.6,6.2,2.8,9.6c0.3,4.3,1,8.5,0.7,12.8
	c-0.3,4.5-1.4,9-2.7,13.3c-2.4,8.2-6.6,15.7-11.1,22.9c-4.5,7.3-9.1,14.5-14.7,21.1c-5.6,6.6-12,12.6-18.7,18.2
	c-6.1,5.1-12.9,9.7-20.6,12.2c-7.6,2.5-15.9,1.9-23.5-0.3c-8-2.3-15-6.9-21.8-11.6c-6.9-4.8-13.6-9.9-19.4-16
	c-5.9-6.2-10.7-13.2-15.2-20.5c-4.3-7-7.7-14.6-12.6-21.1c-4.8-6.4-11-11.6-15.6-18.2c-5-7.2-7.9-15.2-6.6-24.1
	c1.4-9.2,3.3-18.3,5.2-27.4c1.4-6.8,2.8-13.6,5.5-20c2.6-6.2,6.7-11.4,11.2-16.3c4.1-4.5,8.2-9.1,12.6-13.4c2.8-2.7,5.9-5.4,9.7-6.5
	c3.6-1,7.5-0.5,11.2-0.2c8.1,0.6,15.7,1.3,23.6,3.2c7,1.7,14.9,3.6,20.2,8.7c3,2.9,5.2,6.5,7.9,9.6c3.4,3.9,7,7.7,10,11.9
	c3.1,4.2,6,8.6,9.7,12.3c3.9,3.8,8.2,8.3,13.1,10.9c1,0.5,2,1.1,3,1.6c1.1,0.5,1.9,0.1,2.9,0.4"/>
<path class="st1" d="M175.9,97.3c-5,0.1-8.9,3.4-13,5.8c-3.9,2.3-8.5,3.1-12.4,5.4c-4.2,2.5-6.3,6.8-8.1,11.2c-2,5-4,10-5.6,15.1
	c-6.6,21-5.9,43.3-4.2,65c1.8,22.2,4.6,44.4,10.6,65.9c1.4,5.2,3.2,10.1,5.7,14.9c2.3,4.4,4.6,9.1,7.4,13.2
	c5.7,8.1,16.1,13.6,26,13.4c10.5-0.3,21.3-1.9,31-5.7c9.7-3.8,17.5-10.5,25.4-17.1c4.2-3.5,8.4-6.9,12.4-10.7
	c3.7-3.5,6.9-7.5,11.2-10.4c4.3-2.9,9.4-4.6,13.8-7.4c4.2-2.6,7.6-6.2,10.7-10c3-3.6,6.3-7.3,7.7-11.9c1.6-5.5,2.8-11.2,3.9-16.8
	c2.4-11.4,4.6-22.8,6.7-34.3c2-11.1,3.7-22.3,3.1-33.6c-0.6-11.2-3.2-22.2-5-33.3c-1.4-8.5-2.2-17.9-7.9-24.9
	c-6.1-7.5-15.8-13-24.6-16.8c-4.8-2-9.9-4.1-15-4.9c-5.2-0.8-9.8,0.4-14.2,3c-9.2,5.5-17.4,12.5-26.8,17.9
	c-3.3,1.9-6.8,3.6-10.3,5.1c-3.3,1.4-7,3.3-10.7,3.3c-1.1,0-2.1,0.1-3.2,0c-1.1-0.1-1.6-1.1-2.5-1.4L175.9,97.3z"/>
<path class="st2" d="M196.9,462.4c-5.5,0-10.8,3-16,4.6c-5.5,1.7-10.9,2-16.3,3.8c-5.2,1.8-8.1,7.2-10.9,11.6c-3,4.7-5.6,9.6-7.3,15
	c-3.6,11.3-3.3,23.4-2.3,35.1c0.9,11,2.6,21.9,5.7,32.5c1.6,5.3,3.5,10.4,5.9,15.4c2.3,4.9,4.3,10.5,7.9,14.5c1.8,2,3.7,3.7,5.4,5.8
	c1.6,2.1,3.4,3.9,5.7,5.3c4.7,3,10.3,4.8,15.4,6.6c1.8,0.6,3.7,1.2,5.6,1.5c4.7,0.7,9.9,0.2,14.7,0.2c5.1-0.1,10.1-0.4,15.2-1
	c9.9-1.2,19.8-3.2,29.2-6.6c9.2-3.3,17.7-8.2,26.3-12.6c8.5-4.3,16.2-10.3,25.5-13.1c10.3-3.1,20.1-6.5,28.6-13.4
	c3.7-3,5.8-5.4,7.5-9.8c3.7-9.3,6.5-19,9.6-28.5c1.8-5.3,3.9-10.6,4.9-16.2c1.8-10.2,0.1-19.9-3.1-29.6c-2-6.2-3.8-12.4-6.2-18.4
	c-1.8-4.6-5.4-7.5-9.7-9.6c-5-2.4-10.1-4.7-15.1-7c-5.3-2.4-10.8-3-16.5-4.1c-5.6-1.1-11.1-2.5-16.8-2.6c-6.1-0.2-11,1.8-16.5,4
	c-7.4,2.9-14.9,5.4-22.1,8.8c-3.9,1.9-8.4,4-12.6,4.9c-4.8,1-9.7,2.1-14.5,3.2c-2.3,0.5-4.5,0.6-6.9,0.7c-3.1,0-6.1-1.3-9.2-1.4"/>
<path class="st3" d="M403.1,485.4c0,0,0-0.1,0-0.1c0,0,0-0.1,0-0.1c-4-20.6-15-48.9-44.4-67.1c-11.1-6.9-23.7-11.3-37.4-13.1
	c-0.9-0.1-1.9-0.2-2.9-0.3c-3.7-0.4-8-0.8-10.8-2.6c-3.6-2.3-4.5-6.2-5.3-9.8l-0.1-0.4c-1.1-4.8-1.8-9.8-2.2-14.9
	c-0.1-0.9-0.2-1.9-0.3-2.9c-0.4-3.5-1-7.9,0.2-10.6c0.8-1.8,2.6-3,4.6-4.2c1.8-1.2,3.7-2.4,4.7-4.1c1.7-2.9,1.2-6.6-1.3-9.2
	c-4.7-5.1-13.4-4.5-21.1-4c-2,0.1-4,0.3-5.7,0.3c-5.1,0-10.2,0.1-15.4,0.1c-3.8,0-7.6,0-11.5,0.1c-0.6,0-1.1,0-1.7,0
	c-6.2,0-13.3,0-18.6,3.4c-3.6,2.3-5.5,5.5-5.3,9c0.2,3.4,2.5,6.4,6.2,8.2c1.1,0.5,2.1,0.7,3,0.8c1.8,0.2,3.1,0.5,4.5,3.5
	c0.4,1,0.5,2.7,0.5,4.1c0,0.5,0,1,0,1.3c0.3,4.1,0.4,8.2,0.5,12.1c0,1,0.1,2.1,0.1,3.1c0.1,3,0.2,6,0,9c-0.4,5-3.6,6.6-8.9,8.6
	c-15.9,6.2-29.9,12.3-40.7,23c-16.6,16.5-26.6,39.7-30.7,71c-2.1,16.3-1.6,31.8,1.7,46.3c2.3,10.1,6.7,24.8,18.3,34.6
	c10.9,9.2,27,12.8,42.9,15.2c18.9,2.9,38.1,3.5,56,3.8c4.6,0.1,9.3,0.1,14.2,0.1c15.5,0,32.5-0.4,49.3-2
	c17.9-1.7,31.2-7.8,40.6-18.6C409,552.4,408,513.4,403.1,485.4z M247.7,404.5c2.8-3.5,2.6-8.1,2.5-12.1c0-0.8-0.1-1.5-0.1-2.2l0-2.5
	c-0.1-6.1-0.1-12.4-0.8-18.6c-0.4-3.6-1.3-7.2-5-9.3c-1.1-0.6-2.3-0.8-3.5-1c-1.1-0.2-2.2-0.4-3.1-0.9c-1.9-1-2.7-2.2-2.5-3.6
	c0.4-2.5,4.2-5,7.5-5.6c3.6-0.7,7.4-0.9,11.2-0.9c2.2,0,4.5,0.1,6.7,0.1c2.4,0.1,4.7,0.1,7,0.1c1.8,0,3.6,0,5.4,0
	c4.5,0,9.2,0,13.8-0.2c0.6,0,1.4-0.1,2.2-0.2c5.1-0.4,13.6-1.2,14.4,3.2c0.4,2.1-2.3,4-4.8,5.6c-1.3,0.9-2.5,1.7-3.2,2.5
	c-2.8,3.2-2.6,7.4-2.4,11.1c0,0.6,0.1,1.2,0.1,1.8c0.2,7.2,1.1,14.5,2.7,21.6c1.2,5.3,2.6,10,7.5,13c4.3,2.7,9.5,3.3,14.6,3.9
	c1,0.1,1.9,0.2,2.9,0.3c8.4,1.1,16.2,3.3,23.5,6.5c27.4,12.1,46,36.9,52.4,69.7c4.2,24.1,5.5,58.3-12.1,83.8
	c-8.6,12.5-21.4,19.4-39.1,21.1c-16.7,1.7-33.7,1.9-49.7,2c-13.9,0.1-32.2,0-50.6-1.6c-16.6-1.4-35.5-3.5-49.9-10.9
	c-15.1-7.7-20.4-22.5-23.5-34.6c-3.2-12.9-4.1-27-2.6-42.1c3.1-31.4,13-55.7,29.4-72.1c9.5-9.5,21.5-15.3,36.7-21.1
	c0.6-0.2,1.2-0.5,1.8-0.7C241,409.2,245.2,407.7,247.7,404.5z"/>
<path class="st4" d="M353.7,547.6c-7-21.3-15.2-42.7-25-65.3c-27.4-63.3-61.7-124.7-101.9-182.5l-3.2-4.6
	c-6.1-8.7-12.5-17.4-18.8-25.8c-0.1-0.1-0.2-0.2-0.2-0.3c-6.8-15.6-11.8-31.9-15-48.6c1.3-0.1,2.6-0.3,3.8-0.8
	c5.3-2.4,7.2-8.5,5.1-13.7c-2.1-5.2-8.8-7.4-13.7-5.1c-5.3,2.4-7.2,8.5-5.1,13.7c1.1,2.8,3.5,4.6,6.3,5.5l0,0.1c0,0.2,0,0.4,0,0.6
	c3.1,16.1,7.8,31.9,14.1,47c-10.5-2.5-21.4-3.7-32.4-3.5h-0.1c-0.1-0.9-0.4-1.7-0.7-2.6c-2.1-5.1-8.7-7.3-13.5-5.1
	c-5.2,2.4-7.1,8.4-5.1,13.5c2.1,5.1,8.7,7.3,13.5,5c3.2-1.4,5.1-4.2,5.7-7.4h0.1c11.7-0.3,23.3,1.1,34.4,4.1
	c13.3,17.7,26.1,35.9,38,54c-12-3.5-24.5-4.7-37-3.8l-0.1,0c-0.1-0.3-0.2-0.6-0.3-1c-2.6-6.6-11.1-9.3-17.4-6.5
	c-6.7,3-9.1,10.8-6.5,17.4c2.6,6.6,11.1,9.3,17.4,6.5c5.2-2.4,7.8-7.5,7.5-12.8h0c13.2-1,26.2,0.6,38.8,4.6c0.2,0.1,0.4,0.1,0.7,0.1
	c21.9,33.7,42.1,69,60,104.9c16.5,33.2,31.9,69.1,48.7,113.1c0.2,0.4,0.5,0.7,0.9,0.7c0.1,0,0.2,0,0.4-0.1
	C353.5,548.9,353.9,548.3,353.7,547.6z"/>
<path class="st3" d="M469,149.5c-0.6-1-1.9-1.8-3.4-1.1c-1.6,0.8-3.2,1.5-4.8,2.3c-2.1,1-4.2,2-6.4,3c0.1-0.2,0.3-0.4,0.4-0.6
	c3.1-4.1,6.1-8,10.9-10.8c1-0.6,1.6-1.5,1.5-2.6c0-1.1-0.7-2.1-1.6-2.5c-0.9-0.4-1.9-0.3-2.9,0.4c-5.7,4.2-12.7,10.8-13.9,18.6
	c-4.3,1.8-8.1,3.2-11.8,4.3c-3,0.9-6.3,1.7-9.4,2.4c-1.2,0.3-2.5,0.6-3.7,0.9c2.8-3.8,6.1-7.1,9.4-10.3c2-2,4.2-4.1,6.1-6.4
	c0.6-0.6,0.7-1.4,0.5-2.1c-0.3-0.8-1.1-1.5-2.1-1.7c-0.9-0.2-1.8,0.1-2.4,0.9c-1.5,1.7-3.1,3.4-4.8,5c-4.5,4.6-9.2,9.3-11,15.6
	c-2.6,0.7-5,1.5-7.2,2.4c-1.2-1-3-1.2-4.4,0.2c-0.3,0.3-0.6,0.7-0.9,1c-0.1,0.1-0.2,0.2-0.3,0.3c4.2-12.3,9-23.1,14.9-32.9
	c3.1-0.5,6.1-1.5,9.1-2.5c0.4-0.1,0.8-0.3,1.2-0.4c4.3-1.4,7.4-3.2,9.7-5.6c1.3-1.3,1-3.1,0-4.2c-0.8-0.8-2.1-1.3-3.5-0.1
	c-3.2,2.8-6.7,4.6-9.7,6c-0.5,0.2-0.9,0.4-1.4,0.6c-0.7,0.3-1.5,0.6-2.2,1c1.9-3,4-5.9,6.1-8.7c0.5-0.6,0.6-1.3,0.3-2
	c-0.3-0.8-1.1-1.3-1.9-1.4c-0.8-0.1-1.4,0.2-1.9,0.9c-7.6,10.3-13.6,21.2-17.9,32.3l-0.1-0.9c-0.5-6.1-1-11.9,0.3-18.1
	c0.1-0.7,0-1.4-0.5-1.8c-0.6-0.5-1.5-0.7-2.4-0.4c-0.8,0.3-1.4,0.9-1.5,1.8c-1.4,7-2,16.9,2.4,24.4c-1.7,5.1-3.1,10.3-4,15.4
	c-9.5,10.4-18.9,21.4-27.9,32.8c0.8-4.7,1.2-9.6,1.6-14.3c0.1-0.8,0.1-1.6,0.2-2.5c1.9-1.2,3.7-3.2,5.3-4.9c0.5-0.5,0.9-1,1.3-1.4
	c2.1-2.2,4.8-5.2,6.9-8.6c0.8-1.3,0.2-2.5-0.6-3.1c-0.8-0.6-2.1-0.6-3,0.5c-0.8,1-1.6,2.1-2.4,3.1c-1.6,2.1-3.2,4.2-4.9,6.3
	c-0.4,0.4-0.7,0.9-1.1,1.3c-0.3,0.3-0.6,0.6-0.9,1c0.1-0.8,0.2-1.6,0.3-2.4c1-7.5,2.4-15.5,4-23.6l1-0.8c4.4-3.5,8.5-6.9,11.7-11.7
	c0.9-1.4,0.3-3-0.8-3.7c-1-0.6-2.5-0.7-3.4,0.7c-1.8,2.6-4.1,6-6.9,9.2c-0.1,0.1-0.1,0.1-0.2,0.2c0.1-0.3,0.1-0.6,0.2-0.9
	c0.2-0.9,0.4-1.7,0.5-2.5c0.2-0.8,0-1.6-0.6-2.1c-0.7-0.6-1.8-0.8-2.7-0.5c-1,0.3-1.6,1.1-1.8,2.1c-1.3,6.3-2.5,12.8-3.5,19.5
	c-0.8-1.4-1.6-2.9-2.1-4.6c-0.8-2.5-1.4-5.2-2-7.7c-0.1-0.6-0.3-1.1-0.4-1.7c-0.2-1-0.9-1.7-1.9-2c-1-0.3-2.2,0-2.9,0.7
	c-0.6,0.6-0.8,1.4-0.6,2.4c0.1,0.6,0.3,1.1,0.4,1.7c1.6,6.3,3.2,12.7,8.8,16.4c-0.4,3.1-0.8,6-1.1,8.8c-0.1,1-0.2,2-0.4,3
	c-0.5,4.5-1.1,9.2-1.3,13.9c-0.7-0.9-1.4-1.7-2.2-2.6c-0.5-0.6-1-1.2-1.5-1.8c-2.8-3.3-4.2-7.2-5.3-10.5c-0.2-0.8-0.8-1.3-1.5-1.4
	c-0.9-0.2-1.9,0.2-2.5,0.9c-0.6,0.7-0.8,1.7-0.5,2.6c1.2,3.6,2.7,7.4,5.4,10.6c2.2,2.6,4.9,5.4,8,6.6c0,2.8,0.1,5.5,0.4,8.1
	c-13.9,17.7-27.6,36.9-40.7,57.1l-4,6.3l0,0c-32.7,51.6-62.6,110.7-94.2,186.1c-1.2,2.8-2.3,5.4-3.3,7.9
	c-10.5,25-16.3,38.8-25.6,66.7c-0.3,1,0.6,2.4,1.4,2.7c0.1,0,0.2,0.1,0.3,0.1c0.3,0,0.5-0.2,0.6-0.5c10-22.3,18.2-42.2,26.2-61.5
	c10.9-26.3,21.2-51.2,35.2-80.7c14.4-30.4,28.5-57.6,43.2-83.3c3.4-0.8,6.8-2.2,9.9-3.7c4.5,2.6,10.8,3.4,16.9,2
	c1-0.2,1.7-0.9,2-1.8c0.3-1,0-2.2-0.7-2.9c-0.6-0.6-1.4-0.7-2.2-0.5c-3.5,1-6.8,1.3-10.9,0.9c0.7-0.3,1.4-0.6,2-0.9
	c6.5-2.7,12.4-5.1,17.9-7.2c4.2,4.3,11.1,8.2,18.4,10.4c1,0.3,2,0.1,2.8-0.6c0.8-0.8,1.2-2,0.9-3c-0.2-0.9-0.9-1.5-1.8-1.7
	c-3.2-0.9-6.2-2.4-9.2-3.8c-2.1-1-4.3-2.1-6.5-3c4.9-1.8,10.3-3.6,16.8-5.7c1.6,2.1,4,3.8,6.2,5.2c0.4,0.2,0.7,0.5,1.1,0.7
	c0.3,0.2,0.6,0.5,1,0.7c2.5,1.8,5.2,3.7,8.4,3.5c1.4-0.1,2.2-0.9,2.3-2.2c0.1-1.4-0.8-3.2-2.5-3.5c-2.7-0.5-5.2-2.2-7.6-3.9
	c-1.2-0.8-2.4-1.6-3.6-2.3c1.4-0.4,2.8-0.9,4.1-1.3c3.3-1,6.7-2.1,10-3.1c1.6-0.5,1.9-2.1,1.5-3.4c-0.4-1.4-1.6-2.5-3.2-2.1
	c-0.6,0.2-1.2,0.3-1.9,0.5l-0.2,0c2-2,4.4-3.6,6.8-5.2c1.1-0.7,2.2-1.5,3.3-2.3c0.7-0.5,1-1.2,0.9-2c-0.1-0.9-0.8-1.8-1.6-2.1
	c-0.8-0.4-1.7-0.2-2.4,0.3c-0.3,0.2-0.6,0.5-1,0.7c-4.1,3.1-9.2,6.9-10.9,12c-5.9,1.8-12,3.8-18.9,6.4c2.1-3.1,4.7-6.5,8.2-9.5
	c0.7-0.6,1-1.4,0.8-2.2c-0.2-1-0.9-1.8-1.8-2.1c-0.8-0.2-1.5-0.1-2.1,0.5c-5.2,4.9-8.5,9.9-9.7,15c-2.8,1.1-5.7,2.2-8.8,3.5
	c-3.2,1.3-6.6,2.7-10.3,4.3l0,0c0.5-1.1,1.1-2.2,1.7-3.2c0.7-1.2,1.6-2.2,2.5-3.3c0.9-1.1,1.9-2.3,2.7-3.5c0.6-1,0.5-2.1-0.3-2.8
	c-0.6-0.6-1.8-0.9-2.9-0.2c-4,2.6-7.7,9.5-8,15c-0.5,0.2-1,0.5-1.5,0.7c-0.9,0.4-1.7,0.8-2.6,1.2c-1,0.5-2.1,1-3.2,1.5
	c-3.3,1.5-6.7,3-9.8,4.9c12.3-21.1,25.1-41.1,38-59.6c1.3-1.9,2.6-3.7,4-5.5l0.8-1.1c1.4-0.1,2.9-0.3,4.2-0.5c0,0.1,0.1,0.3,0.2,0.4
	c5.2,7.1,10.9,12.3,16.9,15.4c1.3,0.7,2.5,0,3.1-1c0.7-1.1,0.7-2.8-0.6-3.7c-1.2-0.8-2.4-1.6-3.5-2.4c-4.4-2.9-8.6-5.7-12.5-9.2
	c5.2-0.8,10.6-1.9,16.1-3.3c3.6,4.2,7.2,7.6,11.1,10.2c0.8,0.6,1.8,0.6,2.6,0.2c0.9-0.5,1.6-1.5,1.6-2.5c0-0.9-0.4-1.6-1.1-2.1
	c-2.9-1.8-5.9-3.5-8.8-5.2c-0.8-0.5-1.7-1-2.5-1.4c6.9-1.9,14.2-4.2,21.6-7c7,5.1,17.2,4.4,20.2,4.1c1.6-0.2,2.1-1.4,2-2.6
	c-0.1-1.3-1.2-2.6-2.9-2.4c-4.3,0.4-7.6,0.4-10.7,0c-1.4-0.2-2.8-0.5-4.2-0.8c2-0.8,3.8-1.5,5.6-2.3c1.7-0.7,2-2.3,1.5-3.5
	c-0.6-1.4-2.1-2.5-3.9-1.8c-4.6,1.8-9.5,3.5-15.3,5.5c4.5-5.2,9-9.2,14.1-12.3c1.1-0.7,1.3-2.1,0.7-3.1c-0.4-0.7-1.3-1.3-2.4-0.6
	c-6.8,3.8-13,10.2-17.1,17.6c-5.5,1.8-11.2,3.6-16.6,5.4l-1,0.3c1-1.3,1.9-2.7,2.9-4c2.9-4.1,5.8-8.3,9.2-12.2
	c0.5-0.6,0.7-1.3,0.4-1.9c-0.3-0.8-1-1.4-1.9-1.6c-0.8-0.2-1.6,0.1-2.2,0.8c-6.2,7.3-10.5,14.1-12.7,20.3c-4.2,1.3-8,2.6-11.6,3.8
	c16.6-22.9,34.4-44.6,52.9-64.5c0.1-0.1,0.2-0.2,0.3-0.4c7.7-0.1,15.8-2.1,22.8-4.1c2.1,1.8,4.9,3.4,7.1,4.6
	c3.3,1.8,6.9,2.7,10.5,2.6c1.9-0.1,3-1.7,3-3.1c0-1.1-0.7-2.5-2.5-2.6c-4.3-0.2-7.7-1.1-11.4-3l-0.5-0.3c8.8-2.6,18.7-5.9,26.5-11.7
	C469.6,151.9,469.6,150.5,469,149.5z"/>
<path class="st5" d="M342.5,156c-2.6-3.4-6.7-5.3-10.7-7c-17-7.2-34.7-13-52.7-17.3c13.1-0.9,26.3-1.9,39.4-2.9
	c4.8-0.3,9.7-0.7,14-2.8c0.1-2.8-3.4-4-6.2-4.3c-16.2-1.8-32.7-0.5-48.5,3.8c0.9-5,1.8-10.1,1.1-15.2c-0.4-3.3-1.7-10.5-5.5-11.7
	c-3.4-1.1-2.7,8.4-2.7,10.2c0,5.3,0.4,10.5,1.2,15.7c-7.6-5.1-8.8-15.8-14.2-23.2c-4.5-6.1-12.3-9.6-19.8-9c-0.6,3.9,2.3,7.3,5,10.1
	c7,7.4,14,14.7,21,22.1c-15-7-30.4-13.1-46.1-18.1c-2.8-0.9-10.7-3.2-12.1,1.1c-0.6,2,1.1,3.3,2.6,4.2c15.2,9,31.9,15.6,49.2,19.4
	l1.1,0.4c-22.2-6.3-45.8-7.6-68.6-4c-2.8,0.5-6.3,1.6-6.7,4.5c-0.4,3,2.9,5,5.8,5.8c10.1,2.8,20.9,0.9,31.4,0
	c14.8-1.3,29.7-0.4,44.2,2.4c-6.1,1.8-12.3,3.7-18.4,5.5c-11.6,3.5-23.2,7-33.8,12.7c-6.1,3.3-12.3,8.1-13.6,14.9
	c5.2,3.8,12.4,1.1,18.2-1.8c16-7.8,32.1-15.6,48.1-23.4c0.4-0.2,0.7-0.3,1.1-0.5c-9.5,30.6-13.9,57.7-13.5,83c0,1.5,0.1,3,0.1,4.4
	c0.1,2.4,0.2,4.6,0.4,6.6c0.3,3.9,0.7,7.7,1.3,11.5c-6.7-7.7-14.2-14.6-22.2-21c-3-2.4-6.2-4.8-9.9-5.9c-1.9-0.6-4.4-0.5-5.2,1.2
	c-0.4,0.8-0.3,1.8-0.1,2.6c0.8,3.1,3.3,5.5,5.6,7.7c5.2,4.9,10.6,9.6,16.1,14.1c3.6,3,7.4,5.9,11.5,8.3c1.9,1.1,3.9,2,5.9,2.9
	c2.7,14,6.6,27.7,10.5,41.1c5.2,18,9.6,37.4,7.4,57.3c-2,17.7-6.1,35.5-10,52.7c-2.5,10.9-5.1,22.1-7.1,33.3
	c-3.2,17.7-4.7,33.6-4.6,48.9c0.1,19.2,2.9,38.9,8.5,60.3c0.1,0.5,0.5,0.7,1.1,0.7c0.1,0,0.2,0,0.4,0c0.6-0.2,1-0.7,0.9-1.2
	c-7.6-34.6-8.9-68.1-3.9-99.5c2.3-14.3,5.6-28.7,8.7-42.6c3.2-14,6.5-28.5,8.8-42.8c2-12.5,2.5-22.8,1.5-32.4
	c-0.8-8-2.5-16.7-5.4-27.4c-0.8-3.1-1.7-6.3-2.6-9.4c9.6-5.4,18.4-12.1,26.1-19.9c5-5,9.7-10.8,11.4-17.7c0.5-1.9,0.7-4-0.5-5.6
	c-1.2-1.5-3.5-1.9-5.4-1.2c-1.9,0.6-3.4,2-4.8,3.4c-9,8.6-16.8,18.3-24.1,28.4c-1.5,2.1-3.1,4.4-4.3,6.7c-2.5-8.7-5-17.6-6.9-26.5
	c-0.3-1.4-0.6-2.8-0.9-4.2c-1-5-1.8-9.6-2.4-14c-3.9-30.9,0-64.5,11.9-102.6c0.4,0.8,0.7,1.7,0.9,2.5c2.5,11.9,5.7,23.5,9.8,35
	c2,5.7,4.5,11.8,9.6,15.1c3-3.7,2.7-8.9,2-13.6c-2.4-16.5-7.5-32.7-14.9-47.6c16.9,11.9,36.5,20.1,56.9,23.7
	c3.6,0.6,8.5,0.3,9.3-3.3C344.2,158.9,343.5,157.3,342.5,156z M277.7,135.5c0,0.8-0.2,1.7-0.9,2c-0.3,0.2-0.7,0.2-1,0.2
	c-4.7,0.1-8.8-3.1-12.4-6.1c-0.7-0.6-1.5-1.7-0.8-2.4l0.1,0.2c0.4-1.4,1.9-2.2,3.2-2.8c1.5-0.7,3-1.3,4.7-1.5
	c1.6-0.2,3.4,0.1,4.6,1.3c1,0.9,1.5,2.3,1.9,3.6C277.6,131.9,277.8,133.7,277.7,135.5z"/>
<g>
	<path class="st6" d="M227.8,663.6c-13.1,0-20.9,9.2-20.9,24.5s7.8,24.5,20.9,24.5c13.1,0,20.8-9.2,20.8-24.5
		S240.8,663.6,227.8,663.6z M227.8,665.7c10.2,0,16.3,11.4,16.3,22.4c0,11-6.1,22.4-16.3,22.4c-10.3,0-16.4-11.4-16.4-22.4
		C211.4,677.1,217.5,665.7,227.8,665.7z"/>
	<polygon class="st6" points="177.3,663.6 172.8,663.6 172.8,712.7 201.3,712.7 201.3,710.5 177.3,710.5 	"/>
	<polygon class="st6" points="138.1,712.7 142.6,712.7 142.6,688.2 162,688.2 162,686.1 142.6,686.1 142.6,665.7 166.6,665.7 
		166.6,663.6 138.1,663.6 	"/>
	<path class="st6" d="M377.7,665.7c6.5,0,11.6,3,14.4,8.4l0.2,0.4l4.5-1.5l-0.4-0.6c-3.1-5.3-10.6-8.9-18.8-8.9
		c-11.5,0-18.9,4.8-18.9,12.1c0,8.8,9,11.7,17.7,14.5c7.7,2.5,14.9,4.8,14.9,10.9c0,5.7-5.4,9.4-13.8,9.4c-6.6,0-11.8-3-14.5-8.5
		l-0.2-0.5l-4.4,1.6l0.4,0.6c3.2,5.3,10.8,8.9,18.8,8.9c11.3,0,18.8-4.8,18.8-12c0-8.8-9-11.7-17.7-14.5
		c-7.7-2.5-14.9-4.8-14.9-10.9C363.8,669.5,369.2,665.7,377.7,665.7z"/>
	<path class="st6" d="M424.7,686.1c-7.7-2.5-14.9-4.8-14.9-10.9c0-5.8,5.4-9.5,13.9-9.5c6.5,0,11.6,3,14.4,8.4l0.2,0.4l4.5-1.5
		l-0.4-0.6c-3.1-5.3-10.6-8.9-18.8-8.9c-11.5,0-18.9,4.8-18.9,12.1c0,8.8,9,11.7,17.7,14.5c7.7,2.5,14.9,4.8,14.9,10.9
		c0,5.7-5.4,9.4-13.8,9.4c-6.6,0-11.8-3-14.5-8.5l-0.2-0.5l-4.4,1.6l0.4,0.6c3.2,5.3,10.8,8.9,18.8,8.9c11.3,0,18.8-4.8,18.8-12
		C442.5,691.8,433.4,688.9,424.7,686.1z"/>
	<rect x="303.9" y="663.6" class="st6" width="4.5" height="49.1"/>
	<polygon class="st6" points="320.6,712.7 349.2,712.7 349.2,710.5 325.2,710.5 325.2,688.2 339.9,688.2 339.9,686.1 325.2,686.1 
		325.2,665.7 349.2,665.7 349.2,663.6 320.6,663.6 	"/>
	<path class="st6" d="M285.3,686.9c4.7-1.8,7.3-5.8,7.3-11.2c0-7.4-5.8-12.1-14.8-12.1h-19.6v49.1h4.5v-24.4h13.2
		c4.4,0,7.7,1.1,9.9,3.3c3.9,4,4.1,11.1,4.1,18.8v2.3h4.5v-2.3C294.3,700.3,294.3,689.9,285.3,686.9z M262.6,665.7h12.6
		c8.6,0,12.8,3.3,12.8,10.1c0,8.5-6.9,10.3-12.6,10.3h-12.8V665.7z"/>
</g>
<g>
	<path class="st3" d="M135,750.3c0.1-0.1,0.1-0.2,0.2-0.3l12.6-17.4h-12.1c-0.4,0-0.7-0.3-0.7-0.7c0-0.4,0.3-0.7,0.7-0.7H149
		c0.2-0.1,0.4,0,0.6,0.1c0.1,0,0.1,0.1,0.2,0.1c0.2,0.2,0.2,0.6,0,0.9L137,749.8h12.2c0.4,0,0.7,0.3,0.7,0.7c0,0.4-0.3,0.7-0.7,0.7
		h-13.6h-0.1c-0.1,0-0.1,0-0.2,0c-0.1,0-0.1-0.1-0.2-0.1C134.9,750.9,134.9,750.6,135,750.3z"/>
	<path class="st3" d="M153.7,744.3c0-3.9,3-7,6.8-7c3.6,0,6.5,2.9,6.8,6.5v0v0.1c0,0.4-0.3,0.6-0.7,0.6h-11.5
		c0.1,3.1,2.6,5.4,5.4,5.4c1.9,0,3.6-1,4.5-2.5c0.2-0.3,0.6-0.4,0.9-0.2c0.3,0.2,0.4,0.6,0.2,1c-1.2,1.9-3.3,3.2-5.7,3.2
		C156.8,751.2,153.7,748.1,153.7,744.3z M155.2,743.2h10.6c-0.5-2.6-2.7-4.5-5.3-4.5C157.9,738.6,155.7,740.5,155.2,743.2z"/>
	<path class="st3" d="M173.2,731.9c0-0.4,0.3-0.7,0.7-0.7c0.4,0,0.7,0.3,0.7,0.7v18.7c0,0.4-0.3,0.7-0.7,0.7c-0.4,0-0.7-0.3-0.7-0.7
		V731.9z"/>
	<path class="st3" d="M187.2,732c0,0.4-0.3,0.7-0.7,0.7c-1,0-1.5,0.2-1.8,0.5c-0.3,0.3-0.6,1-0.6,2.3v1.5h2c0.4,0,0.7,0.3,0.7,0.7
		c0,0.4-0.3,0.7-0.7,0.7h-2v12.2c0,0.4-0.3,0.7-0.7,0.7c-0.4,0-0.7-0.3-0.7-0.7v-12.2h-1.9c-0.4,0-0.7-0.3-0.7-0.7
		c0-0.4,0.3-0.7,0.7-0.7h1.9v-1.5c0-1.4,0.3-2.5,0.9-3.3c0.7-0.7,1.7-1,2.8-1C186.9,731.2,187.2,731.5,187.2,732z"/>
	<path class="st3" d="M192.2,744.5v-0.3v-0.3v-6c0-0.4,0.3-0.7,0.7-0.7c0.4,0,0.7,0.3,0.7,0.7v2c1.2-1.6,3.1-2.7,5.3-2.7
		c3.8,0,6.8,3.1,6.8,7c0,3.8-3,7-6.8,7c-2.2,0-4.1-1.1-5.3-2.8v8c0,0.4-0.3,0.7-0.7,0.7c-0.4,0-0.7-0.3-0.7-0.7V744.5z M193.6,744.2
		c0,3.1,2.4,5.6,5.3,5.6c3,0,5.4-2.5,5.4-5.6s-2.4-5.6-5.4-5.6c-2.8,0-5.2,2.3-5.3,5.3V744.2z"/>
	<path class="st3" d="M211.6,731.9c0-0.4,0.3-0.7,0.7-0.7c0.4,0,0.7,0.3,0.7,0.7v18.7c0,0.4-0.3,0.7-0.7,0.7c-0.4,0-0.7-0.3-0.7-0.7
		V731.9z"/>
	<path class="st3" d="M219.1,737.9c0-0.4,0.3-0.7,0.7-0.7s0.7,0.3,0.7,0.7v7.7c0,2.4,1.9,4.3,4.3,4.3c2.4,0,4.4-2,4.4-4.3v-7.7
		c0-0.4,0.3-0.7,0.7-0.7c0.4,0,0.7,0.3,0.7,0.7v7.7c0,3.2-2.6,5.7-5.8,5.7c-3.1,0-5.7-2.6-5.7-5.7L219.1,737.9L219.1,737.9z"/>
	<path class="st3" d="M237.8,731.9c0-0.4,0.3-0.7,0.7-0.7c0.4,0,0.7,0.3,0.7,0.7v13.5l8.3-8.3c0.3-0.3,0.7-0.3,1,0
		c0.3,0.3,0.3,0.7,0,1l-5.4,5.4l5.4,6.6c0.3,0.3,0.2,0.7-0.1,1c-0.1,0.1-0.3,0.1-0.5,0.1c-0.2,0-0.4-0.1-0.5-0.3l-5.4-6.5l-2.9,2.9
		v3.2c0,0.4-0.3,0.7-0.7,0.7c-0.4,0-0.7-0.3-0.7-0.7L237.8,731.9L237.8,731.9z"/>
	<path class="st3" d="M264.1,744.5v-0.3V744v-12.1c0-0.4,0.3-0.7,0.7-0.7c0.4,0,0.7,0.3,0.7,0.7v8.1c1.2-1.7,3.2-2.8,5.4-2.8
		c3.8,0,6.8,3.2,6.8,7c0,3.8-3,7-6.8,7c-2.2,0-4.1-1.1-5.4-2.7v2c0,0.4-0.3,0.7-0.7,0.7c-0.4,0-0.7-0.3-0.7-0.7V744.5z M265.5,744.3
		c0,3.1,2.4,5.6,5.4,5.6c3,0,5.4-2.5,5.4-5.6c0-3.1-2.4-5.6-5.4-5.6c-2.9,0-5.3,2.4-5.4,5.4V744.3z"/>
	<path class="st3" d="M284.1,731.9c0-0.4,0.3-0.7,0.7-0.7c0.4,0,0.7,0.3,0.7,0.7v18.7c0,0.4-0.3,0.7-0.7,0.7c-0.4,0-0.7-0.3-0.7-0.7
		V731.9z"/>
	<path class="st3" d="M297.9,737.2c3.7,0,6.6,3.2,6.6,7s-3,7-6.6,7c-3.7,0-6.6-3.2-6.6-7C291.2,740.4,294.2,737.2,297.9,737.2z
		 M297.9,749.9c2.9,0,5.3-2.5,5.3-5.6s-2.4-5.7-5.3-5.7s-5.3,2.5-5.3,5.7C292.6,747.4,295,749.9,297.9,749.9z"/>
	<path class="st3" d="M309.6,744.3c0-3.9,3-7,6.8-7c3.6,0,6.5,2.9,6.8,6.5v0v0.1c0,0.4-0.3,0.6-0.7,0.6H311c0.1,3.1,2.5,5.4,5.4,5.4
		c1.9,0,3.6-1,4.5-2.5c0.2-0.3,0.6-0.4,0.9-0.2c0.3,0.2,0.4,0.6,0.2,1c-1.2,1.9-3.3,3.2-5.7,3.2
		C312.6,751.2,309.6,748.1,309.6,744.3z M311.1,743.2h10.6c-0.5-2.6-2.7-4.5-5.3-4.5C313.8,738.6,311.6,740.5,311.1,743.2z"/>
	<path class="st3" d="M349,743c-0.1-2.4-2-4.3-4.4-4.3c-2.4,0-4.3,2-4.3,4.3v7.7v0.1c0,0,0,0.1,0,0.1v0.1c-0.1,0.2-0.2,0.3-0.3,0.4
		c-0.1,0.1-0.2,0.1-0.3,0.1h-0.1h-0.1c0,0-0.1,0-0.1,0c-0.1,0-0.1-0.1-0.2-0.1c0,0-0.1,0-0.1-0.1L339,751c0,0,0-0.1-0.1-0.1
		c0,0,0,0,0-0.1c0,0,0,0,0-0.1c0,0,0-0.1,0-0.1v-0.1v-0.1v-7.7c0-2.4-1.9-4.3-4.3-4.3c-2.4,0-4.3,2-4.3,4.3v7.7
		c0,0.2-0.1,0.4-0.3,0.5c0,0-0.1,0.1-0.2,0.1c0,0-0.1,0-0.1,0h-0.1h-0.1c-0.3,0-0.5-0.3-0.6-0.5v-0.1v-7.7v-0.2v-4.8
		c0-0.4,0.3-0.7,0.7-0.7c0.4,0,0.7,0.3,0.7,0.7v1.3c1-1.2,2.6-2,4.3-2c2.2,0,4,1.2,5,3c1-1.8,2.9-3,5-3c3.1,0,5.7,2.5,5.7,5.7v7.7
		c0,0.3-0.3,0.7-0.7,0.7c-0.4,0-0.7-0.3-0.7-0.7L349,743L349,743z"/>
	<path class="st3" d="M356,744.3c0-3.9,3-7,6.8-7c3.6,0,6.5,2.9,6.8,6.5v0v0.1c0,0.4-0.3,0.6-0.7,0.6h-11.5c0.1,3.1,2.5,5.4,5.4,5.4
		c1.9,0,3.6-1,4.5-2.5c0.2-0.3,0.6-0.4,0.9-0.2c0.3,0.2,0.4,0.6,0.2,1c-1.2,1.9-3.3,3.2-5.7,3.2C359,751.2,356,748.1,356,744.3z
		 M357.5,743.2h10.6c-0.5-2.6-2.7-4.5-5.3-4.5C360.2,738.6,358,740.5,357.5,743.2z"/>
	<path class="st3" d="M385.3,743c0-2.4-1.9-4.3-4.3-4.3c-2.4,0-4.3,2-4.4,4.3v7.6v0.1c0,0.1-0.1,0.2-0.1,0.3
		c-0.1,0.2-0.3,0.3-0.5,0.3h-0.2c-0.2-0.1-0.4-0.2-0.5-0.4c0,0,0-0.1,0-0.1s0-0.1,0-0.1v-0.2V743v-0.2v-4.8c0-0.4,0.3-0.7,0.7-0.7
		c0.4,0,0.7,0.3,0.7,0.7v1.3c1-1.2,2.6-2,4.4-2c3.1,0,5.7,2.6,5.7,5.7v7.6c0,0.4-0.3,0.7-0.7,0.7c-0.4,0-0.7-0.3-0.7-0.7V743z"/>
	<path class="st3" d="M398.6,737.9c0,0.3-0.3,0.7-0.7,0.7h-1.8v10.2c0,0.7,0.7,1,1,1s0.7,0.4,0.7,0.7s-0.4,0.7-0.7,0.7
		c-1.4,0-2.5-1-2.5-2.4v-10.2h-1.8c-0.7,0-0.7-0.3-0.7-0.7s0-0.7,0.7-0.7h1.8V732c0-0.3,0.3-0.7,0.7-0.7c0.4,0,0.7,0.3,0.7,0.7v5.2
		h1.8C398.2,737.2,398.6,737.6,398.6,737.9z"/>
	<path class="st3" d="M405.7,737.9c0-0.4,0.3-0.7,0.7-0.7s0.7,0.3,0.7,0.7v7.7c0,2.4,1.9,4.3,4.3,4.3c2.4,0,4.4-2,4.4-4.3v-7.7
		c0-0.4,0.3-0.7,0.7-0.7c0.4,0,0.7,0.3,0.7,0.7v7.7c0,3.2-2.5,5.7-5.8,5.7c-3.1,0-5.7-2.6-5.7-5.7L405.7,737.9L405.7,737.9z"/>
	<path class="st3" d="M424.4,733.3c0-0.4,0.3-0.7,0.7-0.7c0.4,0,0.7,0.3,0.7,0.7v0.7c0,0.4-0.3,0.8-0.7,0.8c-0.4,0-0.7-0.3-0.7-0.8
		V733.3z M424.4,737.9c0-0.4,0.3-0.7,0.7-0.7c0.4,0,0.7,0.3,0.7,0.7v12.7c0,0.4-0.3,0.7-0.7,0.7c-0.4,0-0.7-0.3-0.7-0.7V737.9z"/>
	<path class="st3" d="M443.3,743c0-2.4-1.9-4.3-4.3-4.3c-2.4,0-4.3,2-4.4,4.3v7.6v0.1c0,0.1-0.1,0.2-0.1,0.3
		c-0.1,0.2-0.3,0.3-0.5,0.3h-0.2c-0.2-0.1-0.4-0.2-0.5-0.4c0,0,0-0.1,0-0.1s0-0.1,0-0.1v-0.2V743v-0.2v-4.8c0-0.4,0.3-0.7,0.7-0.7
		c0.4,0,0.7,0.3,0.7,0.7v1.3c1-1.2,2.6-2,4.4-2c3.1,0,5.7,2.6,5.7,5.7v7.6c0,0.4-0.3,0.7-0.7,0.7s-0.7-0.3-0.7-0.7V743z"/>
</g>
</svg>
